<?xml version="1.0" encoding="UTF-8" standalone="no"?><svg xmlns="http://www.w3.org/2000/svg" xmlns:xlink="http://www.w3.org/1999/xlink" contentStyleType="text/css" height="326px" preserveAspectRatio="none" style="width:386px;height:326px;background:#FFFFFF;" version="1.1" viewBox="0 0 386 326" width="386px" zoomAndPan="magnify"><defs/><g><line style="stroke:#181818;stroke-width:0.5;stroke-dasharray:5.0,5.0;" x1="24" x2="24" y1="81.2969" y2="245.8281"/><line style="stroke:#181818;stroke-width:0.5;stroke-dasharray:5.0,5.0;" x1="112" x2="112" y1="81.2969" y2="245.8281"/><line style="stroke:#181818;stroke-width:0.5;stroke-dasharray:5.0,5.0;" x1="199.5" x2="199.5" y1="81.2969" y2="245.8281"/><line style="stroke:#181818;stroke-width:0.5;stroke-dasharray:5.0,5.0;" x1="330" x2="330" y1="81.2969" y2="245.8281"/><text fill="#000000" font-family="sans-serif" font-size="14" lengthAdjust="spacing" textLength="32" x="5" y="77.9951">User</text><ellipse cx="24" cy="13.5" fill="#E2E2F0" rx="8" ry="8" style="stroke:#181818;stroke-width:0.5;"/><path d="M24,21.5 L24,48.5 M11,29.5 L37,29.5 M24,48.5 L11,63.5 M24,48.5 L37,63.5 " fill="none" style="stroke:#181818;stroke-width:0.5;"/><text fill="#000000" font-family="sans-serif" font-size="14" lengthAdjust="spacing" textLength="32" x="5" y="257.8232">User</text><ellipse cx="24" cy="269.625" fill="#E2E2F0" rx="8" ry="8" style="stroke:#181818;stroke-width:0.5;"/><path d="M24,277.625 L24,304.625 M11,285.625 L37,285.625 M24,304.625 L11,319.625 M24,304.625 L37,319.625 " fill="none" style="stroke:#181818;stroke-width:0.5;"/><text fill="#000000" font-family="sans-serif" font-size="14" lengthAdjust="spacing" textLength="44" x="87" y="77.9951">FileAPI</text><path d="M91.5,37 L91.5,61 M91.5,49 L108.5,49 " fill="none" style="stroke:#181818;stroke-width:0.5;"/><ellipse cx="120.5" cy="49" fill="#E2E2F0" rx="12" ry="12" style="stroke:#181818;stroke-width:0.5;"/><text fill="#000000" font-family="sans-serif" font-size="14" lengthAdjust="spacing" textLength="44" x="87" y="257.8232">FileAPI</text><path d="M91.5,265.125 L91.5,289.125 M91.5,277.125 L108.5,277.125 " fill="none" style="stroke:#181818;stroke-width:0.5;"/><ellipse cx="120.5" cy="277.125" fill="#E2E2F0" rx="12" ry="12" style="stroke:#181818;stroke-width:0.5;"/><text fill="#000000" font-family="sans-serif" font-size="14" lengthAdjust="spacing" textLength="77" x="158.5" y="77.9951">FileConvert</text><ellipse cx="200" cy="49" fill="#E2E2F0" rx="12" ry="12" style="stroke:#181818;stroke-width:0.5;"/><polygon fill="#181818" points="196,37,202,32,200,37,202,42,196,37" style="stroke:#181818;stroke-width:1.0;"/><text fill="#000000" font-family="sans-serif" font-size="14" lengthAdjust="spacing" textLength="77" x="158.5" y="257.8232">FileConvert</text><ellipse cx="200" cy="277.125" fill="#E2E2F0" rx="12" ry="12" style="stroke:#181818;stroke-width:0.5;"/><polygon fill="#181818" points="196,265.125,202,260.125,200,265.125,202,270.125,196,265.125" style="stroke:#181818;stroke-width:1.0;"/><text fill="#000000" font-family="sans-serif" font-size="14" lengthAdjust="spacing" textLength="104" x="275" y="77.9951">MoleculeModel</text><ellipse cx="330" cy="49" fill="#E2E2F0" rx="12" ry="12" style="stroke:#181818;stroke-width:0.5;"/><line style="stroke:#181818;stroke-width:0.5;" x1="318" x2="342" y1="63" y2="63"/><text fill="#000000" font-family="sans-serif" font-size="14" lengthAdjust="spacing" textLength="104" x="275" y="257.8232">MoleculeModel</text><ellipse cx="330" cy="277.125" fill="#E2E2F0" rx="12" ry="12" style="stroke:#181818;stroke-width:0.5;"/><line style="stroke:#181818;stroke-width:0.5;" x1="318" x2="342" y1="291.125" y2="291.125"/><polygon fill="#181818" points="100,93.2969,110,97.2969,100,101.2969,104,97.2969" style="stroke:#181818;stroke-width:1.0;"/><line style="stroke:#181818;stroke-width:1.0;" x1="24" x2="106" y1="97.2969" y2="97.2969"/><polygon fill="#181818" points="188,107.2969,198,111.2969,188,115.2969,192,111.2969" style="stroke:#181818;stroke-width:1.0;"/><line style="stroke:#181818;stroke-width:1.0;" x1="112" x2="194" y1="111.2969" y2="111.2969"/><polygon fill="#181818" points="318,136.4297,328,140.4297,318,144.4297,322,140.4297" style="stroke:#181818;stroke-width:1.0;"/><line style="stroke:#181818;stroke-width:1.0;" x1="200" x2="324" y1="140.4297" y2="140.4297"/><text fill="#000000" font-family="sans-serif" font-size="13" lengthAdjust="spacing" textLength="106" x="207" y="135.3638">get molfile, error</text><polygon fill="#181818" points="211,165.5625,201,169.5625,211,173.5625,207,169.5625" style="stroke:#181818;stroke-width:1.0;"/><line style="stroke:#181818;stroke-width:1.0;stroke-dasharray:2.0,2.0;" x1="205" x2="329" y1="169.5625" y2="169.5625"/><text fill="#000000" font-family="sans-serif" font-size="13" lengthAdjust="spacing" textLength="64" x="217" y="164.4966">molfile file</text><polygon fill="#181818" points="123,194.6953,113,198.6953,123,202.6953,119,198.6953" style="stroke:#181818;stroke-width:1.0;"/><line style="stroke:#181818;stroke-width:1.0;stroke-dasharray:2.0,2.0;" x1="117" x2="199" y1="198.6953" y2="198.6953"/><text fill="#000000" font-family="sans-serif" font-size="13" lengthAdjust="spacing" textLength="64" x="129" y="193.6294">molfile file</text><polygon fill="#181818" points="35,223.8281,25,227.8281,35,231.8281,31,227.8281" style="stroke:#181818;stroke-width:1.0;"/><line style="stroke:#181818;stroke-width:1.0;stroke-dasharray:2.0,2.0;" x1="29" x2="111" y1="227.8281" y2="227.8281"/><text fill="#000000" font-family="sans-serif" font-size="13" lengthAdjust="spacing" textLength="64" x="41" y="222.7622">molfile file</text><!--MD5=[e27b5227205d72b62e873fa404d19c90]
@startuml FileConvertMolfile
' Endpoint: /api/v1/chemspectra/molfile/convert [POST]

actor       User
boundary    FileAPI
control     FileConvert
entity      MoleculeModel

User -> FileAPI
FileAPI -> FileConvert
FileConvert -> MoleculeModel: get molfile, error
MoleculeModel - -> FileConvert: molfile file
FileConvert - -> FileAPI: molfile file
FileAPI - -> User: molfile file

@enduml

@startuml FileConvertMolfile

actor       User
boundary    FileAPI
control     FileConvert
entity      MoleculeModel

User -> FileAPI
FileAPI -> FileConvert
FileConvert -> MoleculeModel: get molfile, error
MoleculeModel - -> FileConvert: molfile file
FileConvert - -> FileAPI: molfile file
FileAPI - -> User: molfile file

@enduml

PlantUML version 1.2022.7(Mon Aug 22 19:01:30 CEST 2022)
(GPL source distribution)
Java Runtime: OpenJDK Runtime Environment
JVM: OpenJDK 64-Bit Server VM
Default Encoding: UTF-8
Language: en
Country: US
--></g></svg>