<?xml version="1.0" encoding="UTF-8" standalone="no"?><svg xmlns="http://www.w3.org/2000/svg" xmlns:xlink="http://www.w3.org/1999/xlink" contentStyleType="text/css" height="509px" preserveAspectRatio="none" style="width:671px;height:509px;background:#FFFFFF;" version="1.1" viewBox="0 0 671 509" width="671px" zoomAndPan="magnify"><defs/><g><rect fill="none" height="299.3281" style="stroke:#000000;stroke-width:1.5;" width="654.5" x="10" y="112.2969"/><rect fill="none" height="164.7969" style="stroke:#000000;stroke-width:1.5;" width="509" x="145.5" y="210.6953"/><line style="stroke:#181818;stroke-width:0.5;stroke-dasharray:5.0,5.0;" x1="39" x2="39" y1="81.2969" y2="428.625"/><line style="stroke:#181818;stroke-width:0.5;stroke-dasharray:5.0,5.0;" x1="203.5" x2="203.5" y1="81.2969" y2="428.625"/><line style="stroke:#181818;stroke-width:0.5;stroke-dasharray:5.0,5.0;" x1="326.5" x2="326.5" y1="81.2969" y2="428.625"/><line style="stroke:#181818;stroke-width:0.5;stroke-dasharray:5.0,5.0;" x1="463.5" x2="463.5" y1="81.2969" y2="428.625"/><line style="stroke:#181818;stroke-width:0.5;stroke-dasharray:5.0,5.0;" x1="589.5" x2="589.5" y1="81.2969" y2="428.625"/><text fill="#000000" font-family="sans-serif" font-size="14" lengthAdjust="spacing" textLength="32" x="20" y="77.9951">User</text><ellipse cx="39" cy="13.5" fill="#E2E2F0" rx="8" ry="8" style="stroke:#181818;stroke-width:0.5;"/><path d="M39,21.5 L39,48.5 M26,29.5 L52,29.5 M39,48.5 L26,63.5 M39,48.5 L52,63.5 " fill="none" style="stroke:#181818;stroke-width:0.5;"/><text fill="#000000" font-family="sans-serif" font-size="14" lengthAdjust="spacing" textLength="32" x="20" y="440.6201">User</text><ellipse cx="39" cy="452.4219" fill="#E2E2F0" rx="8" ry="8" style="stroke:#181818;stroke-width:0.5;"/><path d="M39,460.4219 L39,487.4219 M26,468.4219 L52,468.4219 M39,487.4219 L26,502.4219 M39,487.4219 L52,502.4219 " fill="none" style="stroke:#181818;stroke-width:0.5;"/><text fill="#000000" font-family="sans-serif" font-size="14" lengthAdjust="spacing" textLength="91" x="155.5" y="77.9951">TransformAPI</text><path d="M183.5,37 L183.5,61 M183.5,49 L200.5,49 " fill="none" style="stroke:#181818;stroke-width:0.5;"/><ellipse cx="212.5" cy="49" fill="#E2E2F0" rx="12" ry="12" style="stroke:#181818;stroke-width:0.5;"/><text fill="#000000" font-family="sans-serif" font-size="14" lengthAdjust="spacing" textLength="91" x="155.5" y="440.6201">TransformAPI</text><path d="M183.5,447.9219 L183.5,471.9219 M183.5,459.9219 L200.5,459.9219 " fill="none" style="stroke:#181818;stroke-width:0.5;"/><ellipse cx="212.5" cy="459.9219" fill="#E2E2F0" rx="12" ry="12" style="stroke:#181818;stroke-width:0.5;"/><text fill="#000000" font-family="sans-serif" font-size="14" lengthAdjust="spacing" textLength="123" x="262.5" y="77.9951">TransformHandler</text><ellipse cx="327" cy="49" fill="#E2E2F0" rx="12" ry="12" style="stroke:#181818;stroke-width:0.5;"/><polygon fill="#181818" points="323,37,329,32,327,37,329,42,323,37" style="stroke:#181818;stroke-width:1.0;"/><text fill="#000000" font-family="sans-serif" font-size="14" lengthAdjust="spacing" textLength="123" x="262.5" y="440.6201">TransformHandler</text><ellipse cx="327" cy="459.9219" fill="#E2E2F0" rx="12" ry="12" style="stroke:#181818;stroke-width:0.5;"/><polygon fill="#181818" points="323,447.9219,329,442.9219,327,447.9219,329,452.9219,323,447.9219" style="stroke:#181818;stroke-width:1.0;"/><text fill="#000000" font-family="sans-serif" font-size="14" lengthAdjust="spacing" textLength="118" x="401.5" y="77.9951">TranformerModel</text><ellipse cx="463.5" cy="49" fill="#E2E2F0" rx="12" ry="12" style="stroke:#181818;stroke-width:0.5;"/><line style="stroke:#181818;stroke-width:0.5;" x1="451.5" x2="475.5" y1="63" y2="63"/><text fill="#000000" font-family="sans-serif" font-size="14" lengthAdjust="spacing" textLength="118" x="401.5" y="440.6201">TranformerModel</text><ellipse cx="463.5" cy="459.9219" fill="#E2E2F0" rx="12" ry="12" style="stroke:#181818;stroke-width:0.5;"/><line style="stroke:#181818;stroke-width:0.5;" x1="451.5" x2="475.5" y1="473.9219" y2="473.9219"/><text fill="#000000" font-family="sans-serif" font-size="14" lengthAdjust="spacing" textLength="103" x="535.5" y="77.9951">BagItConverter</text><ellipse cx="590" cy="49" fill="#E2E2F0" rx="12" ry="12" style="stroke:#181818;stroke-width:0.5;"/><polygon fill="#181818" points="586,37,592,32,590,37,592,42,586,37" style="stroke:#181818;stroke-width:1.0;"/><text fill="#000000" font-family="sans-serif" font-size="14" lengthAdjust="spacing" textLength="103" x="535.5" y="440.6201">BagItConverter</text><ellipse cx="590" cy="459.9219" fill="#E2E2F0" rx="12" ry="12" style="stroke:#181818;stroke-width:0.5;"/><polygon fill="#181818" points="586,447.9219,592,442.9219,590,447.9219,592,452.9219,586,447.9219" style="stroke:#181818;stroke-width:1.0;"/><polygon fill="#181818" points="192,93.2969,202,97.2969,192,101.2969,196,97.2969" style="stroke:#181818;stroke-width:1.0;"/><line style="stroke:#181818;stroke-width:1.0;" x1="39" x2="198" y1="97.2969" y2="97.2969"/><path d="M10,112.2969 L74,112.2969 L74,119.4297 L64,129.4297 L10,129.4297 L10,112.2969 " fill="#EEEEEE" style="stroke:#000000;stroke-width:1.5;"/><rect fill="none" height="299.3281" style="stroke:#000000;stroke-width:1.5;" width="654.5" x="10" y="112.2969"/><text fill="#000000" font-family="sans-serif" font-size="13" font-weight="bold" lengthAdjust="spacing" textLength="19" x="25" y="125.3638">alt</text><text fill="#000000" font-family="sans-serif" font-size="11" font-weight="bold" lengthAdjust="spacing" textLength="97" x="89" y="124.5073">[file not found]</text><polygon fill="#181818" points="50,146.5625,40,150.5625,50,154.5625,46,150.5625" style="stroke:#181818;stroke-width:1.0;"/><line style="stroke:#181818;stroke-width:1.0;stroke-dasharray:2.0,2.0;" x1="44" x2="203" y1="150.5625" y2="150.5625"/><text fill="#000000" font-family="sans-serif" font-size="13" lengthAdjust="spacing" textLength="141" x="56" y="145.4966">Error 404 Bad request</text><line style="stroke:#000000;stroke-width:1.0;stroke-dasharray:2.0,2.0;" x1="10" x2="664.5" y1="159.5625" y2="159.5625"/><polygon fill="#181818" points="315,162.5625,325,166.5625,315,170.5625,319,166.5625" style="stroke:#181818;stroke-width:1.0;"/><line style="stroke:#181818;stroke-width:1.0;" x1="204" x2="321" y1="166.5625" y2="166.5625"/><polygon fill="#181818" points="451.5,191.6953,461.5,195.6953,451.5,199.6953,455.5,195.6953" style="stroke:#181818;stroke-width:1.0;"/><line style="stroke:#181818;stroke-width:1.0;" x1="327" x2="457.5" y1="195.6953" y2="195.6953"/><text fill="#000000" font-family="sans-serif" font-size="13" lengthAdjust="spacing" textLength="103" x="334" y="190.6294">get jcamp, error</text><path d="M145.5,210.6953 L209.5,210.6953 L209.5,217.8281 L199.5,227.8281 L145.5,227.8281 L145.5,210.6953 " fill="#EEEEEE" style="stroke:#000000;stroke-width:1.5;"/><rect fill="none" height="164.7969" style="stroke:#000000;stroke-width:1.5;" width="509" x="145.5" y="210.6953"/><text fill="#000000" font-family="sans-serif" font-size="13" font-weight="bold" lengthAdjust="spacing" textLength="19" x="160.5" y="223.7622">alt</text><text fill="#000000" font-family="sans-serif" font-size="11" font-weight="bold" lengthAdjust="spacing" textLength="59" x="224.5" y="222.9058">[is BagIt]</text><polygon fill="#181818" points="578,244.9609,588,248.9609,578,252.9609,582,248.9609" style="stroke:#181818;stroke-width:1.0;"/><line style="stroke:#181818;stroke-width:1.0;" x1="327" x2="584" y1="248.9609" y2="248.9609"/><text fill="#000000" font-family="sans-serif" font-size="13" lengthAdjust="spacing" textLength="115" x="334" y="243.895">get list jcamp files</text><polygon fill="#181818" points="338,274.0938,328,278.0938,338,282.0938,334,278.0938" style="stroke:#181818;stroke-width:1.0;"/><line style="stroke:#181818;stroke-width:1.0;stroke-dasharray:2.0,2.0;" x1="332" x2="589" y1="278.0938" y2="278.0938"/><text fill="#000000" font-family="sans-serif" font-size="13" lengthAdjust="spacing" textLength="90" x="344" y="273.0278">list jcamp files</text><polygon fill="#181818" points="215,303.2266,205,307.2266,215,311.2266,211,307.2266" style="stroke:#181818;stroke-width:1.0;"/><line style="stroke:#181818;stroke-width:1.0;stroke-dasharray:2.0,2.0;" x1="209" x2="326" y1="307.2266" y2="307.2266"/><text fill="#000000" font-family="sans-serif" font-size="13" lengthAdjust="spacing" textLength="90" x="221" y="302.1606">list jcamp files</text><line style="stroke:#000000;stroke-width:1.0;stroke-dasharray:2.0,2.0;" x1="145.5" x2="654.5" y1="316.2266" y2="316.2266"/><polygon fill="#181818" points="338,334.3594,328,338.3594,338,342.3594,334,338.3594" style="stroke:#181818;stroke-width:1.0;"/><line style="stroke:#181818;stroke-width:1.0;stroke-dasharray:2.0,2.0;" x1="332" x2="462.5" y1="338.3594" y2="338.3594"/><text fill="#000000" font-family="sans-serif" font-size="13" lengthAdjust="spacing" textLength="61" x="344" y="333.2935">jcamp file</text><polygon fill="#181818" points="215,363.4922,205,367.4922,215,371.4922,211,367.4922" style="stroke:#181818;stroke-width:1.0;"/><line style="stroke:#181818;stroke-width:1.0;stroke-dasharray:2.0,2.0;" x1="209" x2="326" y1="367.4922" y2="367.4922"/><text fill="#000000" font-family="sans-serif" font-size="13" lengthAdjust="spacing" textLength="61" x="221" y="362.4263">jcamp file</text><polygon fill="#181818" points="50,399.625,40,403.625,50,407.625,46,403.625" style="stroke:#181818;stroke-width:1.0;"/><line style="stroke:#181818;stroke-width:1.0;stroke-dasharray:2.0,2.0;" x1="44" x2="203" y1="403.625" y2="403.625"/><text fill="#000000" font-family="sans-serif" font-size="13" lengthAdjust="spacing" textLength="105" x="56" y="398.5591">spectrum.zip file</text><!--MD5=[1417f3ec76fa941550d7386e00771e3d]
@startuml TransformGetZipJcamp
' Endpoint: /zip_jcamp [POST]

actor       User
boundary    TransformAPI
control     TransformHandler
entity      TranformerModel
control     BagItConverter

User -> TransformAPI
alt file not found
    TransformAPI - -> User: Error 404 Bad request
else
    TransformAPI -> TransformHandler
    TransformHandler -> TranformerModel: get jcamp, error
    alt is BagIt
        TransformHandler -> BagItConverter: get list jcamp files
        BagItConverter - -> TransformHandler: list jcamp files
        TransformHandler - -> TransformAPI: list jcamp files
    else
        TranformerModel - -> TransformHandler: jcamp file
        TransformHandler - -> TransformAPI: jcamp file
    end
    TransformAPI - -> User: spectrum.zip file
end
    

@enduml

@startuml TransformGetZipJcamp

actor       User
boundary    TransformAPI
control     TransformHandler
entity      TranformerModel
control     BagItConverter

User -> TransformAPI
alt file not found
    TransformAPI - -> User: Error 404 Bad request
else
    TransformAPI -> TransformHandler
    TransformHandler -> TranformerModel: get jcamp, error
    alt is BagIt
        TransformHandler -> BagItConverter: get list jcamp files
        BagItConverter - -> TransformHandler: list jcamp files
        TransformHandler - -> TransformAPI: list jcamp files
    else
        TranformerModel - -> TransformHandler: jcamp file
        TransformHandler - -> TransformAPI: jcamp file
    end
    TransformAPI - -> User: spectrum.zip file
end
    

@enduml

PlantUML version 1.2022.7(Mon Aug 22 19:01:30 CEST 2022)
(GPL source distribution)
Java Runtime: OpenJDK Runtime Environment
JVM: OpenJDK 64-Bit Server VM
Default Encoding: UTF-8
Language: en
Country: US
--></g></svg>